#!OML:ASF F:\VICON\USERDATA\INSTALL\rory3\rory3.ASF
:FULLY-SPECIFIED
:DEGREES
2118
root -2.7233 17.4579 4.36599 -524.884 -133.198 534.578
lowerback 10.118 7.28569 -5.91185
upperback 4.41344 8.72826 -6.90309
thorax -0.77228 4.2612 -4.86105
lowerneck 7.54465 4.58546 -6.01822
upperneck 6.25707 5.06307 23.1608
head -0.355362 2.30349 7.9899
rclavicle -4.29375e-014 -2.38542e-014
rhumerus 1.9662 -9.56044 -73.5047
rradius 76.7708
rwrist -59.4166
rhand -11.6287 6.04809
rfingers 7.12502
rthumb 14.4148 -23.4313
lclavicle -4.29375e-014 -2.38542e-014
lhumerus -36.145 -19.9694 91.2649
lradius 122.963
lwrist 43.0159
lhand 2.30915 18.9494
lfingers 7.12502
lthumb 27.8002 46.9132
rfemur -3.29306 13.5352 18.202
rtibia 45.4096
rfoot 14.0542 10.513
rtoes -13.0903
lfemur -51.0649 -9.25227 1.48449
ltibia 46.4893
lfoot 1.27148 -3.33588
ltoes -18.6975
2119
root -2.72287 17.5959 4.31596 -524.422 -131.316 533.761
lowerback 10.1885 7.45734 -6.02654
upperback 4.59405 8.9234 -7.13439
thorax -0.589086 4.34924 -5.06025
lowerneck 6.85019 4.52891 -5.58558
upperneck 6.831 4.90093 22.7887
head -0.0173686 2.30158 7.81817
rclavicle 1.19271e-014 -4.92986e-014
rhumerus 0.139285 -8.27866 -74.9469
rradius 77.1976
rwrist -59.0364
rhand -11.28 6.46602
rfingers 7.12502
rthumb 14.7508 -22.9891
lclavicle 1.19271e-014 -4.92986e-014
lhumerus -37.1268 -19.0981 90.7809
lradius 123.225
lwrist 43.765
lhand 2.58594 19.4357
lfingers 7.12502
lthumb 28.0648 47.3565
rfemur -3.47976 14.1436 18.0836
rtibia 45.104
rfoot 12.868 9.33409
rtoes -13.3557
lfemur -49.5177 -9.35541 2.42877
ltibia 45.1806
lfoot 2.25605 -1.49112
ltoes -18.8359
2120
root -2.70807 17.7182 4.23175 -523.564 -129.996 533.269
lowerback 10.0638 7.37448 -6.51038
upperback 4.57198 8.76232 -7.27831
thorax -0.598401 4.25571 -4.92197
lowerneck 6.25885 4.50446 -5.41127
upperneck 7.26357 4.79643 22.3845
head 0.246203 2.30835 7.6767
rclavicle 7.15625e-015 -3.65764e-014
rhumerus -1.75798 -6.6942 -76.1768
rradius 77.7234
rwrist -58.4675
rhand -11.3759 6.67363
rfingers 7.12502
rthumb 14.6584 -22.7882
lclavicle 7.15625e-015 -3.65764e-014
lhumerus -38.2007 -17.8842 90.3908
lradius 123.675
lwrist 44.3467
lhand 3.24173 20.1293
lfingers 7.12502
lthumb 28.6915 47.9457
rfemur -4.43149 13.7897 17.7456
rtibia 44.997
rfoot 10.1464 7.6077
rtoes -15.5235
lfemur -49.042 -9.37918 3.32966
ltibia 43.9388
lfoot 3.56491 0.0940481
ltoes -16.3552
2121
root -2.688 17.8315 4.14732 -522.802 -128.51 532.748
lowerback 10.0618 7.34942 -6.99342
upperback 4.56701 8.6602 -7.44306
thorax -0.648426 4.19085 -4.82897
lowerneck 5.94488 4.54838 -5.29661
upperneck 7.39811 4.84267 21.9298
head 0.355168 2.35459 7.51379
rclavicle -1.62208e-013 8.11041e-014
rhumerus -3.63187 -5.13047 -77.3891
rradius 78.2877
rwrist -57.8413
rhand -11.4805 6.32043
rfingers 7.12502
rthumb 14.5576 -23.1487
lclavicle -1.62208e-013 8.11041e-014
lhumerus -39.2756 -16.6662 90.0384
lradius 124.175
lwrist 44.5872
lhand 3.70016 20.5561
lfingers 7.12502
lthumb 29.1294 48.2975
rfemur -5.20296 13.2187 17.3484
rtibia 44.7853
rfoot 6.7124 4.94538
rtoes -17.5763
lfemur -48.4032 -9.47595 4.14247
ltibia 42.8939
lfoot 4.64972 1.96104
ltoes -14.3148
2122
root -2.66743 17.9372 4.0697 -522.037 -126.939 532.095
lowerback 10.0952 7.38494 -7.32072
upperback 4.57307 8.64859 -7.61292
thorax -0.679126 4.17386 -4.8384
lowerneck 5.72283 4.62491 -5.26939
upperneck 7.38959 4.95535 21.5763
head 0.391134 2.41894 7.39329
rclavicle -2.06736e-014 1.59028e-015
rhumerus -5.56492 -3.74622 -78.5661
rradius 78.8294
rwrist -57.3302
rhand -11.2231 6.07174
rfingers 7.12502
rthumb 14.8056 -23.3794
lclavicle -2.06736e-014 1.59028e-015
lhumerus -40.2104 -15.6755 89.6232
lradius 124.542
lwrist 44.467
lhand 3.51213 20.2954
lfingers 7.12502
lthumb 28.9498 48.0678
rfemur -5.78873 12.6739 17.0638
rtibia 44.4972
rfoot 3.56624 1.44412
rtoes -18.0893
lfemur -47.6477 -9.62482 4.89208
ltibia 42.0894
lfoot 5.51811 4.08683
ltoes -12.4371
2123
root -2.6576 18.039 4.0114 -521.657 -125.439 531.78
lowerback 9.97353 7.36011 -7.74714
upperback 4.67117 8.57673 -7.79638
thorax -0.541446 4.12163 -4.7746
lowerneck 5.50387 4.75131 -5.31857
upperneck 7.27089 5.15358 21.2571
head 0.379639 2.51835 7.29255
rclavicle -9.06458e-014 -2.06736e-014
rhumerus -7.39477 -2.39461 -79.669
rradius 79.2431
rwrist -56.8804
rhand -10.8103 6.24168
rfingers 7.12502
rthumb 15.2032 -23.1798
lclavicle -9.06458e-014 -2.06736e-014
lhumerus -41.0885 -14.5625 89.1011
lradius 124.966
lwrist 44.4108
lhand 3.75233 20.2367
lfingers 7.12502
lthumb 29.1792 47.9695
rfemur -6.0091 11.8191 16.5889
rtibia 43.9812
rfoot 0.574117 -2.26699
rtoes -19.105
lfemur -46.8444 -9.85105 5.18652
ltibia 41.6939
lfoot 6.01716 6.02291
ltoes -10.0358
2124
root -2.65423 18.128 3.96762 -521.318 -124.04 531.42
lowerback 9.6572 7.26466 -7.94822
upperback 4.85824 8.47394 -8.00732
thorax -0.167982 4.05501 -4.82233
lowerneck 5.27795 4.88191 -5.19163
upperneck 7.10133 5.37795 20.7673
head 0.365221 2.63211 7.1051
rclavicle -9.85972e-014 -2.22639e-014
rhumerus -9.12855 -1.12341 -80.7184
rradius 79.6638
rwrist -56.4414
rhand -10.239 6.45983
rfingers 7.12502
rthumb 15.7535 -22.9191
lclavicle -9.85972e-014 -2.22639e-014
lhumerus -42.003 -13.3735 88.503
lradius 125.521
lwrist 44.5674
lhand 4.31247 20.3597
lfingers 7.12502
lthumb 29.714 47.9984
rfemur -5.98872 10.7086 16.111
rtibia 43.3386
rfoot -2.25375 -5.8297
rtoes -19.7845
lfemur -46.0956 -10.0378 5.2968
ltibia 41.837
lfoot 6.01412 7.34361
ltoes -8.14684
2125
root -2.63933 18.1879 3.90425 -519.549 -122.708 529.361
lowerback 9.57748 7.28784 -7.26278
upperback 4.92863 8.58066 -7.99507
thorax 0.0461039 4.11864 -5.16628
lowerneck 5.065 4.91097 -4.952
upperneck 6.89345 5.47636 20.1654
head 0.363718 2.68444 6.86776
rclavicle 2.70347e-014 -1.49486e-013
rhumerus -10.9536 -0.212742 -81.5419
rradius 80.1893
rwrist -55.9261
rhand -10.3042 6.50643
rfingers 7.12502
rthumb 15.6907 -22.8774
lclavicle 2.70347e-014 -1.49486e-013
lhumerus -42.9033 -12.4689 88.0367
lradius 126.135
lwrist 44.8403
lhand 4.56956 20.0185
lfingers 7.12502
lthumb 29.9593 47.6131
rfemur -6.17809 9.93754 16.6756
rtibia 42.7705
rfoot -4.43285 -9.43506
rtoes -17.3511
lfemur -45.5383 -9.53591 6.2309
ltibia 42.5693
lfoot 5.69252 7.79065
ltoes -6.60496
2126
root -2.60623 18.205 3.81126 -516.362 -121.61 525.642
lowerback 9.92607 7.41182 -5.96233
upperback 4.85914 8.82666 -7.65583
thorax -0.0759571 4.27087 -5.57553
lowerneck 5.05665 4.85195 -4.9258
upperneck 6.47404 5.48104 19.5759
head 0.270567 2.66764 6.66792
rclavicle -1.59028e-015 1.03368e-013
rhumerus -12.8561 0.413318 -82.0323
rradius 80.8418
rwrist -55.5361
rhand -11.1978 7.07221
rfingers 7.12502
rthumb 14.8299 -22.3771
lclavicle -1.59028e-015 1.03368e-013
lhumerus -43.6913 -11.7585 87.8251
lradius 126.672
lwrist 45.0698
lhand 4.82052 19.7494
lfingers 7.12502
lthumb 30.1988 47.3005
rfemur -6.64132 9.5226 18.3146
rtibia 42.4299
rfoot -6.31218 -12.6022
rtoes -15.3152
lfemur -45.2095 -8.32347 7.87495
ltibia 43.8693
lfoot 5.48084 7.15423
ltoes -6.89007
2127
root -2.56789 18.2049 3.72018 -513.854 -120.695 523.042
lowerback 9.94222 7.27359 -5.3953
upperback 4.77426 8.70039 -7.38247
thorax -0.146001 4.21861 -5.58428
lowerneck 5.05248 4.98544 -5.00743
upperneck 6.16186 5.72308 19.0078
head 0.173263 2.77083 6.48766
rclavicle -9.54166e-014 3.65764e-014
rhumerus -14.5305 1.34132 -82.5538
rradius 81.4318
rwrist -55.2648
rhand -11.5221 7.99423
rfingers 7.12502
rthumb 14.5175 -21.4778
lclavicle -9.54166e-014 3.65764e-014
lhumerus -44.4832 -10.5935 87.5589
lradius 127.2
lwrist 45.1848
lhand 5.21249 19.7801
lfingers 7.12502
lthumb 30.5726 47.2621
rfemur -7.34481 8.90481 19.2679
rtibia 42.2643
rfoot -8.20331 -14.63
rtoes -15.1698
lfemur -45.4155 -7.05352 8.66756
ltibia 45.6805
lfoot 5.31179 5.88685
ltoes -8.42748
2128
root -2.52991 18.2013 3.63787 -512.134 -119.823 521.59
lowerback 9.65257 6.91683 -5.43269
upperback 4.66902 8.25875 -7.20903
thorax -0.159767 3.99597 -5.30561
lowerneck 4.91267 5.29814 -4.98388
upperneck 6.10961 6.17259 18.3478
head 0.157677 2.99595 6.26179
rclavicle 0 2.06736e-014
rhumerus -16.1392 2.64299 -83.0368
rradius 82.0287
rwrist -55.1585
rhand -10.545 7.77319
rfingers 7.12502
rthumb 15.4588 -21.6287
lclavicle 0 2.06736e-014
lhumerus -45.4132 -8.97082 87.2505
lradius 127.835
lwrist 45.4344
lhand 5.41303 20.0012
lfingers 7.12502
lthumb 30.7639 47.4474
rfemur -8.21659 8.10335 19.4894
rtibia 42.3273
rfoot -10.3472 -15.7479
rtoes -15.7799
lfemur -45.9596 -5.6846 8.63282
ltibia 47.8561
lfoot 5.02355 4.10629
ltoes -8.96599
2129
root -2.50678 18.1946 3.60095 -510.929 -118.467 519.825
lowerback 9.81219 6.82646 -5.19793
upperback 4.79693 8.15038 -7.03527
thorax -0.113274 3.9404 -5.24934
lowerneck 4.756 5.53438 -5.06366
upperneck 6.07902 6.50979 17.7758
head 0.158996 3.16624 6.08753
rclavicle -3.81667e-014 9.54166e-015
rhumerus -17.7158 3.66099 -83.2399
rradius 82.442
rwrist -55.4271
rhand -8.85451 7.75545
rfingers 7.12502
rthumb 17.0865 -21.5132
lclavicle -3.81667e-014 9.54166e-015
lhumerus -46.3279 -7.51204 87.1254
lradius 128.459
lwrist 45.5107
lhand 5.81646 20.8978
lfingers 7.12502
lthumb 31.1484 48.2709
rfemur -8.19172 7.60865 19.4561
rtibia 42.453
rfoot -11.6363 -14.9017
rtoes -14.87
lfemur -45.4002 -4.73048 8.23514
ltibia 50.3171
lfoot 4.27176 2.56076
ltoes -9.1378
2130
root -2.46902 18.167 3.54344 -509.462 -117.318 518.368
lowerback 9.79184 6.72078 -4.99698
upperback 4.72202 8.02744 -6.96473
thorax -0.172224 3.88238 -5.27335
lowerneck 4.65301 5.61793 -5.02022
upperneck 5.96713 6.65264 17.2584
head 0.153508 3.23737 5.915
rclavicle 6.99722e-014 1.27222e-014
rhumerus -19.1675 4.0717 -83.3778
rradius 82.6038
rwrist -55.486
rhand -7.0728 8.46067
rfingers 7.12502
rthumb 18.8008 -20.6508
lclavicle 6.99722e-014 1.27222e-014
lhumerus -47.0563 -6.41022 86.9652
lradius 129.007
lwrist 45.4358
lhand 6.4499 22.5614
lfingers 7.12502
lthumb 31.7519 49.8167
rfemur -8.88632 7.06408 19.3751
rtibia 42.7952
rfoot -12.2047 -14.5518
rtoes -15.5688
lfemur -45.6129 -3.57244 7.75793
ltibia 52.8803
lfoot 3.68277 0.839183
ltoes -9.82766
2131
root -2.43492 18.1231 3.48114 -508.261 -116.206 516.868
lowerback 10.0539 6.64024 -4.80766
upperback 4.70673 7.90825 -6.87219
thorax -0.326611 3.82368 -5.30021
lowerneck 4.49412 5.64236 -4.7619
upperneck 5.98623 6.70677 16.5836
head 0.220972 3.27549 5.66659
rclavicle 2.54444e-014 -1.90833e-014
rhumerus -20.6261 4.41182 -83.431
rradius 82.9807
rwrist -54.8726
rhand -6.43309 8.60773
rfingers 7.12502
rthumb 19.416 -20.4429
lclavicle 2.54444e-014 -1.90833e-014
lhumerus -47.6726 -5.33034 86.6988
lradius 129.584
lwrist 45.4982
lhand 6.66799 23.4707
lfingers 7.12502
lthumb 31.9596 50.6847
rfemur -9.24065 6.75178 19.4029
rtibia 43.2582
rfoot -12.3479 -13.8008
rtoes -16.0814
lfemur -45.5211 -2.52859 7.18569
ltibia 55.4407
lfoot 3.03479 -0.882601
ltoes -10.6964
2132
root -2.40132 18.0619 3.42031 -506.855 -115.13 515.142
lowerback 10.2547 6.51212 -4.60024
upperback 4.68235 7.73984 -6.71606
thorax -0.467598 3.74087 -5.25705
lowerneck 4.48866 5.7659 -4.50691
upperneck 5.87902 6.91438 15.7878
head 0.215974 3.37784 5.37134
rclavicle 1.11319e-014 1.59028e-014
rhumerus -22.036 4.96061 -83.3047
rradius 83.565
rwrist -53.9532
rhand -6.99989 7.95786
rfingers 7.12502
rthumb 18.8709 -21.1468
lclavicle 1.11319e-014 1.59028e-014
lhumerus -48.2211 -4.04954 86.2915
lradius 130.242
lwrist 45.7997
lhand 6.87628 23.4949
lfingers 7.12502
lthumb 32.1579 50.669
rfemur -9.6602 6.66821 19.5269
rtibia 43.945
rfoot -12.1517 -12.4999
rtoes -17.1108
lfemur -45.3241 -1.5273 6.63487
ltibia 57.7855
lfoot 2.22666 -2.47166
ltoes -12.8976
